<svg width="1922" height="619" viewBox="0 0 1922 619" fill="none" xmlns="http://www.w3.org/2000/svg">
<path d="M1 253.406L321.002 1L640.998 253.406L961 1L1281 253.406L1601 1L1921 253.406" stroke="#606060"/>
<path d="M1 295.474L321.002 43.0684L640.998 295.474L961 43.0684L1281 295.474L1601 43.0684L1921 295.474" stroke="#606060"/>
<path d="M1 351.567L321.002 99.1613L640.998 351.567L961 99.1613L1281 351.567L1601 99.1613L1921 351.567" stroke="#606060"/>
<path d="M1 407.662L321.002 155.256L640.998 407.662L961 155.256L1281 407.662L1601 155.256L1921 407.662" stroke="#606060"/>
<path d="M1 463.744L321.002 211.338L640.998 463.744L961 211.338L1281 463.744L1601 211.338L1921 463.744" stroke="#606060"/>
<path d="M1 505.813L321.002 253.407L640.998 505.813L961 253.407L1281 505.813L1601 253.407L1921 505.813" stroke="#606060"/>
<path d="M1 561.906L321.002 309.5L640.998 561.906L961 309.5L1281 561.906L1601 309.5L1921 561.906" stroke="#606060"/>
<path d="M1 618L321.002 365.594L640.998 618L961 365.594L1281 618L1601 365.594L1921 618" stroke="#606060"/>
</svg>
